HIERARCHY
ROOT RootJoint
{
    OFFSET   0.000000   0.000000   0.000000
    CHANNELS 6 Xposition Yposition Zposition Xrotation Yrotation Zrotation
    JOINT pelvis_lowerback
    {
        OFFSET   0.000000   0.093605   0.000000
        CHANNELS 3 Xrotation Yrotation Zrotation
        JOINT lowerback_torso
        {
            OFFSET   0.000000   0.100000   0.000000
            CHANNELS 3 Xrotation Yrotation Zrotation
            JOINT torso_head
            {
                OFFSET   0.000000   0.282350   0.000000
                CHANNELS 3 Xrotation Yrotation Zrotation
                End Site
                {
                    OFFSET   0.000000   0.192650   0.000000
                }
            }
            JOINT rTorso_Clavicle
            {
                OFFSET  -0.001000   0.157500   0.000000
                CHANNELS 3 Xrotation Yrotation Zrotation
                JOINT rShoulder
                {
                    OFFSET  -0.117647   0.000000   0.000000
                    CHANNELS 3 Xrotation Yrotation Zrotation
                    JOINT rElbow
                    {
                        OFFSET  -0.245000   0.000000   0.000000
                        CHANNELS 3 Xrotation Yrotation Zrotation
                        JOINT rWrist
                        {
                            OFFSET  -0.240000   0.000000   0.000000
                            CHANNELS 3 Xrotation Yrotation Zrotation
                            End Site
                            {
                                OFFSET  -0.116353  -0.002500   0.000000
                            }
                        }
                    }
                }
            }
            JOINT lTorso_Clavicle
            {
                OFFSET   0.001000   0.157500   0.000000
                CHANNELS 3 Xrotation Yrotation Zrotation
                JOINT lShoulder
                {
                    OFFSET   0.117647   0.000000   0.000000
                    CHANNELS 3 Xrotation Yrotation Zrotation
                    JOINT lElbow
                    {
                        OFFSET   0.245000   0.000000   0.000000
                        CHANNELS 3 Xrotation Yrotation Zrotation
                        JOINT lWrist
                        {
                            OFFSET   0.240000   0.000000   0.000000
                            CHANNELS 3 Xrotation Yrotation Zrotation
                            End Site
                            {
                                OFFSET   0.116353  -0.002500   0.000000
                            }
                        }
                    }
                }
            }
        }
    }
    JOINT rHip
    {
        OFFSET  -0.100000  -0.051395   0.000000
        CHANNELS 3 Xrotation Yrotation Zrotation
        JOINT rKnee
        {
            OFFSET   0.000000  -0.410000   0.000000
            CHANNELS 3 Xrotation Yrotation Zrotation
            JOINT rAnkle
            {
                OFFSET   0.000000  -0.390000   0.000000
                CHANNELS 3 Xrotation Yrotation Zrotation
                JOINT rToeJoint
                {
                    OFFSET   0.000000  -0.050000   0.130000
                    CHANNELS 3 Xrotation Yrotation Zrotation
                    End Site
                    {
                        OFFSET  -0.010000   0.002000   0.060000
                    }
                }
            }
        }
    }
    JOINT lHip
    {
        OFFSET   0.100000  -0.051395   0.000000
        CHANNELS 3 Xrotation Yrotation Zrotation
        JOINT lKnee
        {
            OFFSET   0.000000  -0.410000   0.000000
            CHANNELS 3 Xrotation Yrotation Zrotation
            JOINT lAnkle
            {
                OFFSET   0.000000  -0.390000   0.000000
                CHANNELS 3 Xrotation Yrotation Zrotation
                JOINT lToeJoint
                {
                    OFFSET   0.000000  -0.050000   0.130000
                    CHANNELS 3 Xrotation Yrotation Zrotation
                    End Site
                    {
                        OFFSET   0.010000   0.002000   0.060000
                    }
                }
            }
        }
    }
}
MOTION
Frames: 17
Frame Time:   0.008333
 -2.376719   0.925631   3.975860   0.000000   0.000000   0.000000   0.000000   0.000000   0.000000   0.000000   0.000000   0.000000   0.000000   0.000000   0.000000   0.000000   0.000000   0.000000   0.000000   0.000000   0.000000   0.000000   0.000000   0.000000   0.000000   0.000000   0.000000   0.000000   0.000000   0.000000   0.000000   0.000000   0.000000   0.000000   0.000000   0.000000   0.000000   0.000000   0.000000   0.000000   0.000000   0.000000   0.000000   0.000000   0.000000   0.000000   0.000000   0.000000   0.000000   0.000000   0.000000   0.000000   0.000000   0.000000   0.000000   0.000000   0.000000   0.000000   0.000000   0.000000   0.000000   0.000000   0.000000
 -2.376568   0.926280   3.976027  -0.656655   0.239963   0.028635   0.609465  -0.101028  -0.070540   0.330192  -0.143074   0.074014  -0.173952   0.228268  -0.005368   0.084409  -0.265942   0.498314   0.438516   0.159847   2.024515   0.017633   0.789610  -0.005649   0.313242  -0.326862  -3.031049   0.086826   0.053334  -0.413944   0.750956  -0.068225  -2.073035   0.020969  -0.973143   0.009696   0.331639   0.504895   2.828850   0.549958   0.428019  -0.174931   0.463296   0.000614   0.002699  -0.414600   0.102759   0.047885  -0.039932  -0.000034  -0.000269   0.467049   0.059308   0.050848   1.031337  -0.000669   0.002703  -1.256482   0.375779   0.270101   0.302021  -0.000915   0.001783
 -2.376335   0.927381   3.976187  -1.361201   0.579796   0.054248   1.206336  -0.255460  -0.123192   0.733455  -0.346270   0.168027  -0.308832   0.450696  -0.010641   0.172093  -0.492586   1.759535   0.858740   0.368654   4.661965   0.040887   1.559681  -0.009985   0.651578  -0.414064  -5.316626   0.176972   0.002242  -1.563921   1.477491  -0.261387  -4.741085   0.048768  -1.934509   0.017443   0.693269   0.689922   4.907131   1.078398   0.854090  -0.450466   0.981949   0.001743   0.005604  -0.800586   0.204521   0.094254  -0.094917  -0.000130  -0.000632   1.016041   0.134888   0.190878   2.161901  -0.001910   0.006324  -2.432522   0.729824   0.531446   0.523958  -0.001529   0.002927
 -2.376065   0.928486   3.976344  -2.032532   0.955472   0.080737   1.764399  -0.439934  -0.159938   1.122502  -0.581525   0.263146  -0.430992   0.659119  -0.011849   0.257262  -0.672843   3.485478   1.257001   0.618292   7.705200   0.063760   2.288170  -0.012806   0.984555  -0.405845  -6.706386   0.256786  -0.126205  -3.201718   2.141555  -0.537598  -7.660591   0.075792  -2.855617   0.022760   1.050678   0.693892   6.061387   1.525896   1.250031  -0.806335   1.468938   0.003001   0.007710  -1.161150   0.299054   0.137834  -0.151660  -0.000255  -0.000934   1.598004   0.215238   0.406696   3.257422  -0.003354   0.009562  -3.530338   1.057469   0.782831   0.723770  -0.002035   0.003721
 -2.375793   0.929270   3.976516  -2.657337   1.335742   0.109900   2.283930  -0.641794  -0.186625   1.483376  -0.833273   0.354238  -0.547066   0.853750  -0.011171   0.339305  -0.818240   5.470833   1.633517   0.902626  11.021613   0.083499   2.973502  -0.014414   1.308334  -0.349500  -7.423047   0.322880  -0.302217  -5.118635   2.741650  -0.872466 -10.668807   0.098572  -3.731145   0.026171   1.401044   0.584812   6.531546   1.891622   1.615648  -1.226193   1.909017   0.004158   0.008948  -1.499016   0.386288   0.178680  -0.211606  -0.000403  -0.001182   2.199095   0.297259   0.684905   4.299318  -0.004808   0.012081  -4.556446   1.360136   1.024200   0.900917  -0.002417   0.004174
 -2.375529   0.929484   3.976717  -3.235621   1.704269   0.140585   2.767452  -0.853371  -0.203171   1.816405  -1.092530   0.446987  -0.657304   1.035360  -0.012297   0.418478  -0.940280   7.601237   1.979974   1.208764  14.450397   0.098803   3.615998  -0.015038   1.620922  -0.266698  -7.646685   0.374095  -0.504003  -7.174661   3.280056  -1.246694 -13.667988   0.115746  -4.559125   0.028154   1.741761   0.403945   6.541176   2.184722   1.953452  -1.695905   2.303202   0.005112   0.009478  -1.815684   0.466734   0.216967  -0.273360  -0.000560  -0.001366   2.812671   0.379648   1.012931   5.287859  -0.006148   0.013858  -5.515600   1.639556   1.255513   1.058080  -0.002680   0.004355
 -2.375251   0.928942   3.976957  -3.770342   2.051233   0.170313   3.217464  -1.069988  -0.204311   2.124529  -1.353919   0.552798  -0.761189   1.204835  -0.017539   0.496416  -1.048426   9.813787   2.285613   1.519090  17.813414   0.109203   4.216808  -0.014852   1.920632  -0.169820  -7.495309   0.410952  -0.716050  -9.278809   3.760308  -1.644656 -16.598595   0.127144  -5.339304   0.029086   2.070134   0.178460   6.251791   2.415151   2.266309  -2.204340   2.655791   0.005837   0.009483  -2.112344   0.540969   0.252869  -0.335240  -0.000712  -0.001485   3.434026   0.461847   1.377992   6.225897  -0.007286   0.014962  -6.412043   1.897435   1.476768   1.198212  -0.002837   0.004336
 -2.375075   0.926963   3.976603  -3.918040   2.305788   0.064433   3.406303  -1.184045  -0.044771   2.308578  -1.622279   0.665494  -0.908237   1.272800  -0.117315   0.673347  -1.014536  11.469942   2.642773   1.776090  20.845347   0.115368   4.867941  -0.015888   2.125331  -0.105046  -6.230649   0.575498  -0.925472 -10.634620   4.111923  -2.060591 -19.572114   0.129373  -6.067901   0.029541   2.351357  -0.199896   5.093240   1.996891   2.400636  -2.518415   3.646130   0.008952   0.010389  -2.465705   0.715551   0.571114  -0.261579  -0.000480  -0.000845   3.655510   0.606323   1.847337   6.574412  -0.006654   0.013302  -6.740655   2.245155   1.722377   1.291450  -0.002732   0.004080
 -2.374936   0.923772   3.976087  -4.027808   2.594481  -0.052529   3.618284  -1.300349   0.127373   2.474111  -1.878224   0.791074  -1.054323   1.331085  -0.212668   0.827613  -0.956710  12.819253   2.958775   2.043624  23.540551   0.115333   5.481624  -0.016498   2.326345  -0.016506  -5.075534   0.712594  -1.140388 -11.692590   4.417330  -2.470610 -22.213492   0.125794  -6.752784   0.029312   2.618854  -0.603484   4.035772   1.602203   2.514138  -2.773816   4.629077   0.011050   0.011119  -2.790045   0.876671   0.869975  -0.173205  -0.000298  -0.000270   3.759546   0.737831   2.295409   6.782149  -0.005748   0.011469  -7.049444   2.568604   1.954566   1.403347  -0.002684   0.004002
 -2.374812   0.919500   3.975518  -4.122848   2.892394  -0.164055   3.841089  -1.402115   0.297324   2.639534  -2.110980   0.919531  -1.186843   1.385306  -0.300204   0.961661  -0.889178  13.944919   3.237409   2.311994  25.960318   0.111437   6.058116  -0.016720   2.520780   0.084484  -4.156486   0.826504  -1.347683 -12.537411   4.682731  -2.864654 -24.575145   0.118818  -7.393942   0.028419   2.872011  -0.999499   3.216148   1.270493   2.621215  -2.994365   5.561790   0.012229   0.011543  -3.092225   1.025991   1.150030  -0.087370  -0.000169   0.000169   3.777641   0.860498   2.702049   6.930429  -0.004853   0.009764  -7.340772   2.868973   2.173333   1.504792  -0.002548   0.003856
 -2.374616   0.919119   3.975334  -4.392743   2.753597  -0.025479   4.160079  -1.329435   0.258557   2.888036  -2.199712   0.954415  -1.301225   1.441361  -0.390407   1.050360  -0.756880  15.200287   3.466204   2.616060  28.253976   0.107219   6.603768  -0.016298   2.712038   0.196440  -3.475763   0.944959  -1.509575 -13.495483   4.924758  -3.212485 -26.791057   0.111413  -7.971239   0.027266   3.103963  -1.274514   2.651446   0.981972   2.662265  -3.158763   6.601108   0.010422   0.007828  -3.109957   1.105452   1.537605   0.090399  -0.000658   0.000039   3.815072   0.867037   2.544423   7.426661  -0.003748   0.007350  -7.387401   2.974042   2.205405   0.676478  -0.001992   0.003156
 -2.374524   0.918894   3.975382  -4.578810   2.608312   0.050794   4.382638  -1.285419   0.303368   3.087430  -2.279163   0.993654  -1.400244   1.491401  -0.477884   1.139083  -0.649888  16.224699   3.673536   2.902410  30.370681   0.101142   7.119148  -0.015265   2.897183   0.350738  -2.742540   1.073759  -1.628554 -14.274684   5.151087  -3.527011 -28.859167   0.102675  -8.509979   0.025692   3.322525  -1.537079   2.002314   0.760136   2.731641  -3.246871   7.423857   0.008626   0.005391  -3.481415   1.210645   1.798656  -0.059196  -0.000228   0.000027   3.840048   0.951691   2.453646   7.822325  -0.002917   0.005730  -7.568550   3.194595   2.357813   0.615683  -0.001525   0.002431
 -2.374533   0.918669   3.975516  -4.718972   2.464298   0.117909   4.574199  -1.251333   0.359913   3.252022  -2.356101   1.042130  -1.498735   1.537413  -0.555494   1.223699  -0.559881  17.096715   3.860957   3.166325  32.293272   0.093797   7.598205  -0.013983   3.071778   0.497276  -2.106491   1.196268  -1.729132 -14.923176   5.356744  -3.815524 -30.740821   0.093235  -9.009467   0.023909   3.528146  -1.773480   1.430030   0.549654   2.801752  -3.320380   8.135356   0.007058   0.003615  -3.803533   1.310418   2.025454  -0.184289   0.000041   0.000019   3.851014   1.045714   2.377123   8.160373  -0.002294   0.004480  -7.738592   3.412917   2.508275   0.574776  -0.001171   0.001880
 -2.374654   0.918468   3.975615  -4.763198   2.422774   0.179623   4.723645  -1.202673   0.350082   3.323603  -2.430285   1.182605  -1.580434   1.526433  -0.644002   1.293730  -0.578961  17.580923   4.060506   3.380565  33.746991   0.085518   8.137236  -0.012932   3.189507   0.664898  -0.857384   1.322531  -1.799352 -15.223283   5.357953  -4.133186 -32.359615   0.083705  -9.564892   0.021459   3.673153  -1.965826   0.449063   0.269930   2.834175  -3.375858   8.822142   0.005730   0.002638  -4.210311   1.333770   2.183979  -0.133267  -0.000033   0.000013   3.753008   1.117332   2.315609   8.475623  -0.001791   0.003705  -7.892732   3.395676   2.650714   0.548480  -0.000906   0.001498
 -2.374894   0.918279   3.975771  -4.778981   2.436884   0.240465   4.852495  -1.156352   0.330580   3.363453  -2.506914   1.307342  -1.657146   1.516538  -0.720213   1.354653  -0.606727  17.783413   4.244166   3.568795  34.924013   0.075568   8.639271  -0.011888   3.299376   0.828969   0.141756   1.418383  -1.873534 -15.294325   5.342423  -4.429049 -33.723132   0.073444 -10.090565   0.018942   3.805697  -2.186762  -0.316862   0.004852   2.841167  -3.421619   9.443501   0.004613   0.002076  -4.605488   1.328650   2.329592  -0.030496  -0.000155   0.000011   3.642131   1.196903   2.272035   8.744617  -0.001410   0.003214  -8.026326   3.392237   2.792712   0.536993  -0.000710   0.001188
 -2.375267   0.918099   3.976000  -4.776023   2.510469   0.301894   4.963284  -1.120489   0.301195   3.382471  -2.586963   1.409473  -1.729478   1.507591  -0.789371   1.406342  -0.637538  17.793992   4.412872   3.736483  35.892165   0.065293   9.105539  -0.010906   3.403923   0.967391   0.854535   1.493838  -1.947570 -15.207309   5.318086  -4.699439 -34.883154   0.063364 -10.581935   0.016470   3.932132  -2.399054  -0.837925  -0.237877   2.852674  -3.452760  10.009364   0.003677   0.001975  -4.983756   1.330640   2.466725   0.133868  -0.000336   0.000117   3.524336   1.275306   2.246419   8.977859  -0.001124   0.002908  -8.147815   3.393186   2.928765   0.559725  -0.000599   0.000983
 -2.375776   0.917927   3.976305  -4.759370   2.636957   0.365346   5.058666  -1.091496   0.260355   3.386052  -2.667284   1.489153  -1.797692   1.499316  -0.853886   1.450231  -0.669893  17.673417   4.568204   3.886817  36.698944   0.055466   9.538697  -0.010024   3.504154   1.080386   1.340498   1.554562  -2.018495 -15.014035   5.288485  -4.945678 -35.882373   0.054015 -11.040016   0.014109   4.053404  -2.592113  -1.165953  -0.459701   2.863193  -3.471736  10.530075   0.002899   0.002131  -5.342163   1.331654   2.594796   0.285340  -0.000468   0.000265   3.404219   1.351647   2.236349   9.180342  -0.000907   0.002709  -8.265554   3.397321   3.057792   0.645764  -0.000603   0.000951
